<?xml version="1.0" encoding="UTF-8"?>
<svg id="Layer_1" data-name="Layer 1" xmlns="http://www.w3.org/2000/svg" version="1.1" viewBox="0 0 278.3 273.8">
  <defs>
    <style>
      .cls-1 {
        fill: #fe8f84;
      }

      .cls-1, .cls-2, .cls-3, .cls-4, .cls-5, .cls-6, .cls-7, .cls-8, .cls-9, .cls-10, .cls-11, .cls-12, .cls-13, .cls-14, .cls-15, .cls-16, .cls-17, .cls-18 {
        stroke-width: 0px;
      }

      .cls-2 {
        fill: #fd822d;
      }

      .cls-3 {
        fill: #fea78b;
      }

      .cls-4 {
        fill: #fd8d30;
      }

      .cls-5 {
        fill: #fe8782;
      }

      .cls-6 {
        fill: #feb58f;
      }

      .cls-7 {
        fill: #fd7128;
      }

      .cls-8 {
        fill: #fe9b88;
      }

      .cls-9 {
        fill: #fea389;
      }

      .cls-10 {
        fill: #fd7a3b;
      }

      .cls-11 {
        fill: #fd7a2a;
      }

      .cls-12 {
        fill: #fd7339;
      }

      .cls-13 {
        fill: #fdad0e;
      }

      .cls-14 {
        fill: #fea089;
      }

      .cls-15 {
        fill: #fd6d37;
      }

      .cls-16 {
        fill: #fe9986;
      }

      .cls-17 {
        fill: #fead8d;
      }

      .cls-18 {
        fill: #fe9486;
      }
    </style>
  </defs>
  <path class="cls-10" d="M243,0h35.2v3c-.2,1.5-.5,3.1-.8,4.6-1.2,7.5-2.5,14.9-3.8,22.4-2.8.4-6.3,0-8.2,1.5-3,2.4-5.8,4-9.6,4.1-1,0-2,.4-2.9.7-4.3,1.6-8.5,3.3-12.8,5-5.2,2-10.5,3.9-15.7,6-1.6.6-2.9,2-4.4,2.7-6,2.3-12,4.3-18,6.5-2,.7-3.8,2-5.8,2.6-8.3,2.4-16.9,4-23.9,9.8-.9.8-2.2,1.2-3.4,1.5-5.8,1.3-11.7,2.6-17.6,3.8,4.5-7.4,8.6-15.1,13.7-22.1,4.8-6.6,10.8-12.3,16.3-18.4,2.1-1.7,4.2-3.5,6.3-5.2,9.4-7.6,19.3-14.5,30.5-19.2C226.5,6,234.8,3.1,243,0h0Z"/>
  <path class="cls-5" d="M278.3,273.8c-34.9.8-65.2-11.4-91.7-33.5-6.2-5.2-11.6-11.5-17.4-17.3,2.4-.5,4.8-1.5,7.2-1.6,29.6-.1,59.2,0,88.8,0,4.7,0,9.7-1.1,13,3.7v48.8Z"/>
  <path class="cls-1" d="M278.3,225c-3.3-4.9-8.4-3.7-13-3.7-29.6,0-59.2,0-88.8,0-2.4,0-4.8,1-7.2,1.6-8.3-9.5-15.1-19.9-20-31.6,1.7-.5,3.3-1.5,5-1.5,38.5,0,77,0,115.6,0,3.1,0,6.1-.2,8.5,2.3v33h0Z"/>
  <path class="cls-17" d="M76.5,122c-10.9-5.8-21.3-12.5-30.1-21.4-.6-2.6-1.7-5.1-1.8-7.7-.2-6.4,0-12.9,0-19.4,0-7.1-.3-14.2-.3-21.3,0-6.8.3-13.7.4-20.5.1-10.6.2-21.2.3-31.9h30.8c.2,40.7.5,81.4.8,122h0Z"/>
  <path class="cls-3" d="M76.5,122c-.2-40.7-.5-81.3-.8-122h31.5c0,20,0,40.1,0,60.1-1,2-2,4-3.1,5.9-9.9,19.3-15.8,39.7-15.8,61.5-4-1.8-7.9-3.7-11.9-5.5h0Z"/>
  <path class="cls-6" d="M45,0c0,10.6-.2,21.2-.3,31.9,0,6.8-.4,13.7-.4,20.5,0,7.1.3,14.2.3,21.3,0,6.5-.2,12.9,0,19.4,0,2.6,1.1,5.1,1.8,7.7-15.9-14.2-27.6-31.5-35.8-51.1C5.8,38.1,2.8,26,.9,13.8.2,9.2.3,4.6,0,0h45Z"/>
  <path class="cls-18" d="M278.3,192c-2.4-2.5-5.4-2.3-8.5-2.3-38.5,0-77,0-115.6,0-1.7,0-3.3,1-5,1.5-.8-1.7-1.6-3.4-2.4-5.2,5.4-.6,10.8-1,16.2-1.7,18.7-2.4,36-8.7,51.9-18.8,4.1-2.6,8.2-5.4,12.2-8.1.3,2.6,2.2,2.2,3.9,2.2,12.8,0,25.6,0,38.5,0,2.9,0,5.7.9,8.6,1.4v30.8h0Z"/>
  <path class="cls-14" d="M107.3,60.1c0-20,0-40.1,0-60.1h34.5c0,5.8,0,11.6,0,17.4,0,1.2.6,2.5.9,3.7-1.3,1.2-2.7,2.5-4,3.7-5.7,5.4-11.7,10.5-16.8,16.4-5.3,5.9-9.8,12.6-14.6,18.9h0Z"/>
  <path class="cls-8" d="M278.3,161.2c-2.9-.5-5.7-1.4-8.6-1.4-12.8-.2-25.6,0-38.5,0-1.7,0-3.7.4-3.9-2.2,1.1-1,2.1-2,3.1-3.1,6-6.2,11.9-12.4,17.9-18.6,3.2-4,6.5-8,9.7-12.1,3.3.2,6.6.7,9.9.7,3.7,0,7.3-.3,10.4,2.3v34.5h0Z"/>
  <path class="cls-4" d="M273.8,30c1.2-7.5,2.5-14.9,3.8-22.4.3-1.5.5-3.1.8-4.6v61.5c-.5,2.6-.9,5.2-1.5,7.8-1.4,5.9-2.9,11.8-4.3,17.8-6.9,0-13.8,0-20.7-.3-2.4-.1-4.8-1.3-7.2-2l12.8-18.8c1.5-2.4,3.2-4.7,4.5-7.2,5.3-10.1,9.6-20.6,12-31.9h0Z"/>
  <path class="cls-7" d="M243,0c-8.2,3.1-16.6,6-24.7,9.4-11.2,4.7-21.1,11.6-30.5,19.2-2.1,1.7-4.2,3.5-6.3,5.2-2.6.2-3-1.4-3-3.5,0-9,0-18.1,0-27.1C181.5,2,184.5,1,187.5,0h55.5,0Z"/>
  <path class="cls-9" d="M272.4,90.1c1.4-5.9,2.9-11.8,4.3-17.8.6-2.6,1-5.2,1.5-7.8v62.2c-3.1-2.6-6.8-2.2-10.4-2.3-3.3,0-6.6-.5-9.9-.7.3-.7.5-1.4.9-2,6-9.9,10.8-20.4,13.5-31.7h0Z"/>
  <path class="cls-16" d="M187.5,0c-3,1-6,2-9,3.1-4,1.6-8.2,2.9-12,4.9-8,4.2-15.8,8.8-23.7,13.2-.3-1.2-.9-2.5-.9-3.7,0-5.8,0-11.6,0-17.4h45.8Z"/>
  <path class="cls-11" d="M248.3,135.8c-6,6.2-11.9,12.4-17.9,18.6-1,1.1-2.1,2.1-3.1,3.1-4.1,2.7-8.1,5.5-12.2,8.1-15.9,10.1-33.2,16.4-51.9,18.8-5.4.7-10.8,1.1-16.2,1.7-.2-.3-.4-.5-.7-.8-6-15.5-9.5-31.4-9.7-48.1h0c14.1.8,27.8-1.4,41.2-5.3-.1,3,2.1,2.2,3.7,2.2,20.8,0,41.5,0,62.2,0,1.5,0,3.1,1,4.6,1.5h0Z"/>
  <path class="cls-2" d="M107.3,60.1c4.8-6.3,9.3-13,14.6-18.9,5.2-5.8,11.2-10.9,16.8-16.4.2,3.5.7,6.9.7,10.4,0,19,0,38.1,0,57.2,0,2-.5,3.9-.6,5.9-.1,3.2-.1,6.5-.2,9.7,0,1.5,0,3,0,4.5-.2.4-.6.8-.7,1.2-.5,7.8-1,15.7-1.6,23.5h0c-10.1.5-20-1-29.7-3.7-6.1-1.7-12.1-3.5-18.1-5.3,0-.2-.2-.4-.2-.7,0-21.8,5.9-42.2,15.8-61.5,1-2,2-4,3.1-5.9Z"/>
  <path class="cls-13" d="M88.7,128.2c6,1.8,12.1,3.6,18.1,5.3,9.7,2.7,19.6,4.2,29.7,3.8.2,16.6,3.7,32.6,9.7,48.1h-57.5v-57.1h0Z"/>
  <path class="cls-12" d="M138.8,112.5c0-1.5,0-3,0-4.5.5-1.5,1.1-3,1.5-4.5,2.7-10.2,5.6-20.2,11.3-29.3,5.9-1.3,11.7-2.5,17.6-3.8,1.2-.3,2.5-.7,3.4-1.5,6.9-5.8,15.5-7.5,23.9-9.8,2-.6,3.8-1.9,5.8-2.6,6-2.2,12-4.3,18-6.5,1.6-.6,2.9-2,4.4-2.7,5.2-2.1,10.5-4,15.7-6,4.3-1.6,8.5-3.3,12.8-5,.9-.3,1.9-.7,2.9-.7,3.8,0,6.6-1.7,9.6-4.1,1.9-1.5,5.4-1.1,8.2-1.5-2.4,11.2-6.7,21.7-12,31.9-1.3,2.5-3,4.8-4.5,7.2-1-.2-2.2-.8-3.1-.6-5.1,1.5-9.9,4.6-15.6,3.7-.4,0-1.1.6-1.5,1-3.4,2.9-6.9,4.6-11.7,5.3-5.4.8-10.4,4.4-15.5,6.8-5.9,2.9-12.2,6.4-18.2,6.5-7.2,0-12.1,4.4-17.6,6.8-7.1,3.2-14.3,5.9-21.7,8.1-3.7,1.1-6.9,2.3-9.9,4.7-.9.8-2.5.8-3.7,1.2h0Z"/>
  <path class="cls-11" d="M151.5,74.2c-5.6,9-8.6,19.1-11.3,29.3-.4,1.5-1,3-1.5,4.5,0-3.2,0-6.5.2-9.7,0-2,.6-3.9.6-5.9,0-19.1,0-38.1,0-57.2,0-3.5-.5-6.9-.7-10.4,1.3-1.2,2.7-2.5,4-3.7,7.9-4.4,15.7-9,23.7-13.2,3.8-2,8-3.2,12-4.8,0,9,0,18.1,0,27.1,0,2.2.4,3.7,3,3.5-5.5,6.1-11.5,11.8-16.3,18.4-5.1,7-9.2,14.7-13.7,22.1h0Z"/>
  <path class="cls-2" d="M248.3,135.8c-1.5-.5-3.1-1.5-4.6-1.5-20.7-.1-41.5,0-62.2,0-1.6,0-3.8.8-3.7-2.2,3.9-1.5,7.9-2.8,11.8-4.4,16.6-6.6,31.3-16.2,44-28.7,3.7-3.6,7.2-7.5,10.9-11.2,2.4.7,4.8,1.9,7.2,2,6.9.3,13.8.2,20.7.3-2.7,11.3-7.5,21.8-13.5,31.7-.4.6-.6,1.3-.9,2-3.2,4-6.5,8-9.7,12Z"/>
  <path class="cls-15" d="M244.5,87.8c-3.6,3.7-7.2,7.6-10.9,11.2-12.8,12.5-27.4,22.1-44,28.7-3.9,1.6-7.9,2.9-11.8,4.4-13.5,3.9-27.2,6.1-41.2,5.2.5-7.8,1-15.7,1.6-23.5,0-.4.4-.8.7-1.2,1.3-.4,2.8-.4,3.7-1.2,3-2.4,6.2-3.6,9.9-4.7,7.4-2.1,14.6-4.9,21.7-8.1,5.5-2.4,10.3-6.8,17.6-6.8,6,0,12.2-3.6,18.2-6.5,5.1-2.4,10.1-6,15.5-6.8,4.8-.7,8.3-2.4,11.7-5.3.5-.4,1.1-1,1.5-1,5.7.9,10.5-2.2,15.6-3.7.9-.3,2.1.3,3.1.6l-12.8,18.8Z"/>
</svg>