<?xml version="1.0" encoding="UTF-8"?>
<svg id="Layer_1" data-name="Layer 1" xmlns="http://www.w3.org/2000/svg" version="1.1" viewBox="0 0 467.8 810">
  <defs>
    <style>
      .cls-1 {
        fill: #b8e7c8;
      }

      .cls-2 {
        fill: #9addb1;
      }

      .cls-3 {
        fill: #8dd9a7;
      }

      .cls-4 {
        fill: #9bddb1;
      }
    </style>
  </defs>
  <path class="cls-1" d="M402.7,529.4c6.7,10,13.8,19.8,20.1,30.1,11.2,18.5,20.1,38.1,27.1,58.6,5.9,17.3,10.5,35,13.4,53.1,2.4,14.9,3.8,29.8,3.8,44.9,0,14.7.6,29.4.6,44.1,0,16.6-.4,33.2-.7,49.7H142.4c-8.8-6.9-18.1-13.3-26.4-20.8-12.1-11-24.2-22.1-34.9-34.4-11.2-12.8-21.5-26.6-30.8-40.8-20.7-32-35-66.9-42.9-104.2-2.7-13-4.5-26.2-6.1-39.4-3.2-26.4-1-52.9-1.4-79.3-.1-10.2.5-20.4.8-30.7.5.8,1.2,1.5,1.3,2.3,1.2,7.3,1.8,14.8,3.6,22,4.2,16.5,8.5,33,13.9,49.1,7.3,22.1,18,42.7,30.8,62.1,7.8,11.8,16.5,23.1,25.2,34.2,5.2,6.6,11.5,12.4,17.2,18.6,1.8,2.3,3.5,4.5,5.2,6.8,5,9,10,17.9,15.1,26.8.3.5,2.3.6,3.1.2,2.8-1.3,5.4-3,8.1-4.6.7,0,1.5,0,2.2,0,.1.2.2.5.4.6,18.8,14.5,39,26.6,60.8,35.7,23.1,9.7,46.8,17.8,70.2,26.6,18.5,7,37.1,13.9,55.6,20.8,7.1,2.6,14.2,5.1,21.3,7.7.4-.7.7-1.1.9-1.5,5.7-15.3,11.4-30.6,17-45.9,7-18.9,13.8-37.9,21-56.8,8.5-22.3,17.3-44.6,21.8-68.2,2.6-13.5,4.6-27.2,6.1-40.8,1-8.9.7-17.9,1-26.9h0Z"/>
  <path class="cls-1" d="M413.1,0c1.3,8.1,2.5,16.2,4,24.2,3.4,18.5,6.9,37.1,10.3,55.6,2.7,15,5.5,30,8,45.1,1,6.1,1.4,12.3,1.8,18.5.4,9.5.9,18.9.7,28.4-.6,27.2-4.4,54-12,80.2-6.1,21.2-14.2,41.5-24.5,61-2.4,4.5-5.1,8.8-7.7,13.2-.5-1.2-1.2-2.4-1.4-3.7-1.6-13.2-2.6-26.4-4.6-39.5-4.3-28.9-13.8-56.3-26.6-82.4-7.6-15.5-16.6-30.4-25.2-45.4-15.9-27.9-31.9-55.8-47.8-83.7-1.5-2.6-3.2-5.2-4.8-7.9-14.8,8.4-29,16.5-43.3,24.6-16.8,9.6-33.5,19.2-50.2,28.8-13.4,7.7-27.1,14.9-40,23.4-11.6,7.6-22.8,16.1-33.4,25-10.1,8.5-19.1,18.2-28.6,27.3-.2,0-.5,0-.7,0-6.5-2.5-13.1-5.1-19.8-7.7-5.9,15.8-11.5,31.1-17.2,46.4-3.4,9.3-6.8,18.7-10.2,28-3.5,8.3-7.3,16.6-10.4,25.1-4.8,12.9-9,26-13.6,38.9-.4,1.3-1.4,2.3-2.2,3.5-.3-.9-.8-1.8-.8-2.7.2-13.2-.3-26.5.9-39.6,1.8-19.8,5.4-39.3,10.8-58.5,6.3-22.4,15-43.9,25.9-64.4,10.1-19,22-36.8,35.8-53.2,7.2-8.6,14.7-17,22.7-24.8,20.6-20.2,43.5-37.2,68.8-51.1,25.8-14.2,53-24.7,81.7-31.4,1.3-.3,2.5-.8,3.8-1.2h150,0Z"/>
  <path class="cls-3" d="M86.9,192.8c.2,0,.5,0,.7,0,27.8,10.3,55.5,20.6,83.3,30.9,24.9,9.2,49.8,18.2,72.8,31.7,19.9,11.7,38.5,25.2,55.4,40.8,9.4,8.7,18,18.3,26.5,27.9,12.6,14.1,23.4,29.6,32.9,46.1.4.8,1.3,1.3,2,1.9,0,.8,0,1.5,0,2.2-1.1.7-2.4,1.3-3.3,2.2-7,7.1-13.5,14.7-20.8,21.3-9.7,8.8-19.8,17-30,25.1-4.7,3.8-9.8,7-15,10.6,4.3,2.5,8.1,4.7,12,7,16,9.2,31.1,19.7,45.2,31.6,3.6,3,7.4,5.7,11.1,8.6,0,.5,0,1,0,1.5-.7.9-1.5,1.6-2,2.6-3,5.4-5.9,11-9,16.4-10.7,18.6-23.3,35.9-37.7,51.7-8.3,9.1-17.2,17.6-26.5,25.7-9.5,8.3-19.3,16.6-29.9,23.4-17.3,11.2-35.4,21.3-53.2,31.7-22.5,13-45.2,25.8-67.7,38.8-2.6,1.5-4.8,3.6-7.2,5.4-.7,0-1.5,0-2.2,0-.8-1.1-1.4-2.4-2.3-3.2-6.5-5.7-13.2-11.3-19.8-16.9-1.2-1-2.7-1.6-4.1-2.3-1.8-2.3-3.5-4.5-5.2-6.8-.6-1.6-.9-3.4-1.8-4.8-6.7-11.9-13.6-23.8-20.4-35.7-9.5-16.7-18.9-33.4-28.4-50-9.6-16.7-16.9-34.5-22.7-52.8-5.2-16.4-9.7-33.1-11.6-50.4-1.4-12.2-2.7-24.4-3.5-36.6-.5-7.7,0-15.5,0-23.2.2,0,.5,0,.7,0h17.4c.2-.5.3-.6.3-.7-2.9-19-5.7-38-8.7-56.9,0-.6-1.1-1.1-1.7-1.6.3-3,.7-6,1-9,.7-1.2,1.7-2.2,2.2-3.5,4.6-13,8.8-26,13.6-38.9,3.1-8.5,6.9-16.7,10.4-25.1.6-.5,1.5-.9,1.8-1.6,2.8-4.7,5.2-9.6,8.3-14.1,8.7-12.7,17.5-25.2,26.4-37.7,3.3-4.6,7.1-8.9,10.7-13.3h0Z"/>
  <path class="cls-4" d="M4.4,395.3c0,7.7-.4,15.5,0,23.2.8,12.2,2.2,24.4,3.5,36.6,1.9,17.2,6.3,33.9,11.6,50.4,5.8,18.3,13.1,36,22.7,52.8,9.5,16.6,18.9,33.3,28.4,50,6.8,11.9,13.6,23.8,20.4,35.7.8,1.5,1.2,3.2,1.8,4.8-5.8-6.2-12-12-17.2-18.6-8.8-11.1-17.5-22.4-25.2-34.2-12.8-19.4-23.5-40-30.8-62.1-5.3-16.1-9.6-32.6-13.9-49.1-1.8-7.2-2.4-14.7-3.6-22-.1-.8-.9-1.5-1.3-2.3-.3-16.9-.6-33.8-.8-50.6,0-4.8.5-9.7.8-14.5,1.2,0,2.4,0,3.6,0h0Z"/>
  <path class="cls-4" d="M12.4,336c.6.5,1.5,1,1.7,1.6,3,19,5.8,38,8.7,56.9,0,.1,0,.2-.3.7H5.1c.3-5.6.3-11.2.8-16.7.7-7.5,1.7-15,2.7-22.4.6-4.7,1.3-9.4,1.9-14,0-.5,0-1,.1-1.4.2-.5.4-1,.6-1.5.4-1,.8-2,1.1-3.1h0Z"/>
  <path class="cls-1" d="M10.5,342c-.6,4.7-1.3,9.4-1.9,14-.9,7.5-2,14.9-2.7,22.4-.5,5.5-.6,11.1-.8,16.7-.2,0-.5,0-.7,0-1.2,0-2.4,0-3.6,0,.9-7.9,1.5-15.8,2.9-23.6,1.6-9.4,3.9-18.7,5.9-28.1.1-.6.5-1,.8-1.6h0Z"/>
  <path class="cls-1" d="M11.2,339c-.2.5-.4,1-.6,1.5.2-.5.4-1,.6-1.5Z"/>
  <path class="cls-2" d="M360.6,372c-.7-.6-1.6-1.1-2-1.9-9.5-16.4-20.2-31.9-32.9-46.1-8.5-9.6-17.1-19.2-26.5-27.9-16.9-15.6-35.5-29.1-55.4-40.8-23-13.5-47.9-22.6-72.8-31.7-27.8-10.2-55.5-20.6-83.3-30.9,9.5-9.2,18.6-18.8,28.6-27.3,10.6-9,21.8-17.4,33.4-25,12.9-8.4,26.6-15.7,40-23.4,16.7-9.6,33.5-19.2,50.2-28.8,14.3-8.1,28.5-16.2,43.3-24.6,1.6,2.7,3.3,5.2,4.8,7.9,16,27.9,32,55.7,47.8,83.7,8.5,15.1,17.5,29.9,25.2,45.4,12.8,26.1,22.3,53.5,26.6,82.4,2,13.1,3,26.3,4.6,39.5.2,1.3.9,2.5,1.4,3.7-.3,1.2-.6,2.5-.9,3.7-.7.5-1.5.9-1.9,1.6-5.1,7.5-9.8,15.2-15.2,22.5-4.6,6.3-9.9,12-14.9,18h0Z"/>
  <path class="cls-2" d="M126.6,678c2.4-1.8,4.6-3.9,7.2-5.4,22.5-13,45.2-25.8,67.7-38.8,17.9-10.4,35.9-20.5,53.2-31.7,10.6-6.8,20.4-15.1,29.9-23.4,9.3-8.1,18.2-16.7,26.5-25.7,14.5-15.8,27-33.1,37.7-51.7,3.1-5.4,6-10.9,9-16.4.5-.9,1.3-1.7,2-2.6,7.3,7.1,14.7,14.1,21.7,21.5,5.6,5.9,10.7,12.4,16,18.6,1.5,1.7,3.2,3.3,4.8,5,0,.7.2,1.4.3,2.1-.3,9,0,18-1,26.9-1.5,13.7-3.5,27.3-6.1,40.8-4.5,23.6-13.3,45.8-21.8,68.2-7.2,18.9-14,37.8-21,56.8-5.7,15.3-11.4,30.6-17,45.9-.2.5-.5.8-.9,1.5-7.1-2.6-14.2-5.1-21.3-7.7-18.5-6.9-37.1-13.8-55.6-20.8-23.4-8.8-47.1-17-70.2-26.6-21.8-9.1-42-21.2-60.8-35.7-.2-.1-.2-.4-.4-.6h0Z"/>
  <path class="cls-2" d="M359.8,480.8c-3.7-2.9-7.5-5.6-11.1-8.6-14.1-11.9-29.2-22.4-45.2-31.6-3.9-2.2-7.7-4.5-12-7,5.2-3.6,10.3-6.9,15-10.6,10.2-8.2,20.3-16.4,30-25.1,7.3-6.7,13.9-14.2,20.8-21.3.9-.9,2.2-1.5,3.3-2.2,5,9.6,10.1,19.1,14.9,28.7,2.5,5.1,4.7,10.4,7,15.5,0,1,0,1.9,0,2.9-.5,1.4-1.2,2.7-1.6,4.2-5.3,19.1-12.4,37.5-21.1,55.2h0Z"/>
  <path class="cls-1" d="M359.8,480.8c8.8-17.8,15.9-36.1,21.1-55.2.4-1.4,1-2.8,1.6-4.2,3.2,9.7,7.1,19.2,9.4,29,3.6,16,6.3,32.1,9,48.3.9,5.2.7,10.6.9,16,.2,4.2.4,8.4.6,12.6-1.6-1.6-3.3-3.2-4.8-5-5.3-6.2-10.4-12.7-16-18.6-7-7.4-14.5-14.3-21.7-21.5,0-.5,0-1,0-1.5h0Z"/>
  <path class="cls-1" d="M382.5,418.5c-2.3-5.2-4.4-10.5-7-15.5-4.8-9.6-9.9-19.2-14.9-28.7,0-.8,0-1.5,0-2.2,5-6,10.3-11.7,14.9-18,5.4-7.3,10.1-15,15.2-22.5.4-.7,1.3-1,1.9-1.6-.4,12.9,0,25.8-1.4,38.6-1.5,14.5-4.3,28.9-6.7,43.3-.4,2.3-1.3,4.5-2,6.7h0Z"/>
  <path class="cls-4" d="M98.1,655.5c1.4.8,2.9,1.3,4.1,2.3,6.7,5.6,13.3,11.2,19.8,16.9,1,.8,1.6,2.1,2.3,3.2-2.7,1.5-5.3,3.2-8.1,4.6-.8.4-2.8.3-3.1-.2-5.1-8.9-10.1-17.8-15.1-26.8h0Z"/>
  <path class="cls-2" d="M86.9,192.8c-3.6,4.4-7.3,8.7-10.7,13.3-8.9,12.5-17.8,25-26.4,37.7-3.1,4.5-5.5,9.4-8.3,14.1-.4.7-1.2,1.1-1.8,1.6,3.4-9.4,6.8-18.7,10.2-28,5.6-15.3,11.3-30.6,17.2-46.4,6.7,2.6,13.3,5.1,19.8,7.7h0Z"/>
</svg>